G04 (created by PCBNEW-RS274X (2012-01-19 BZR 3256)-stable) date 4/16/2012 4:42:44 PM*
G01*
G70*
G90*
%MOIN*%
G04 Gerber Fmt 3.4, Leading zero omitted, Abs format*
%FSLAX34Y34*%
G04 APERTURE LIST*
%ADD10C,0.006000*%
%ADD11C,0.075000*%
%ADD12R,0.065000X0.040000*%
%ADD13R,0.100000X0.080000*%
%ADD14R,0.080000X0.100000*%
%ADD15R,0.075000X0.075000*%
%ADD16C,0.085000*%
%ADD17C,0.090000*%
%ADD18O,0.110000X0.082000*%
%ADD19R,0.110000X0.082000*%
%ADD20C,0.171600*%
%ADD21C,0.080000*%
%ADD22C,0.120000*%
%ADD23R,0.080000X0.080000*%
%ADD24C,0.180000*%
G04 APERTURE END LIST*
G54D10*
G54D11*
X45200Y-67300D03*
X43200Y-67300D03*
X45200Y-64300D03*
X43200Y-64300D03*
G54D12*
X32400Y-64550D03*
X32400Y-64050D03*
X32400Y-63550D03*
X32400Y-63050D03*
X32400Y-62550D03*
X32400Y-62050D03*
X32400Y-61550D03*
X34900Y-61550D03*
X34900Y-62050D03*
X34900Y-63050D03*
X34900Y-63550D03*
X34900Y-64050D03*
X34900Y-64550D03*
X34900Y-62550D03*
G54D13*
X29250Y-49400D03*
X29250Y-48100D03*
G54D14*
X46775Y-51250D03*
X48075Y-51250D03*
G54D13*
X32000Y-66800D03*
X32000Y-65500D03*
G54D14*
X45550Y-55300D03*
X46850Y-55300D03*
G54D13*
X42025Y-49250D03*
X42025Y-47950D03*
G54D14*
X23600Y-63450D03*
X22300Y-63450D03*
X23600Y-61450D03*
X22300Y-61450D03*
X22325Y-54175D03*
X21025Y-54175D03*
X26125Y-57775D03*
X24825Y-57775D03*
X45550Y-57300D03*
X46850Y-57300D03*
G54D15*
X49700Y-63300D03*
G54D11*
X49700Y-62300D03*
X49700Y-61300D03*
X49700Y-60300D03*
X49700Y-59300D03*
X49700Y-58300D03*
X49700Y-57300D03*
X49700Y-56300D03*
G54D15*
X37200Y-61300D03*
G54D11*
X37200Y-62300D03*
X37200Y-63300D03*
X37200Y-64300D03*
X37200Y-65300D03*
X37200Y-66300D03*
G54D15*
X37200Y-57300D03*
G54D11*
X37200Y-58300D03*
X37200Y-59300D03*
X37200Y-60300D03*
G54D15*
X48700Y-48525D03*
G54D11*
X49700Y-48525D03*
G54D16*
X20700Y-58500D03*
X20700Y-61500D03*
X31000Y-52800D03*
X31000Y-49800D03*
X22250Y-65775D03*
X25250Y-65775D03*
X22250Y-66925D03*
X25250Y-66925D03*
X25400Y-52975D03*
X22400Y-52975D03*
X22425Y-55375D03*
X25425Y-55375D03*
X22375Y-56650D03*
X25375Y-56650D03*
X25375Y-58900D03*
X22375Y-58900D03*
X40250Y-48750D03*
X37250Y-48750D03*
X35200Y-57300D03*
X32200Y-57300D03*
X35200Y-58300D03*
X32200Y-58300D03*
X38700Y-66300D03*
X41700Y-66300D03*
G54D11*
X44725Y-49900D03*
G54D15*
X44725Y-48900D03*
G54D11*
X43725Y-48900D03*
X32250Y-49250D03*
G54D15*
X32250Y-48250D03*
G54D11*
X31250Y-48250D03*
G54D17*
X43700Y-57300D03*
X43700Y-55300D03*
X25300Y-63400D03*
X25300Y-61400D03*
G54D15*
X46725Y-49900D03*
G54D11*
X49725Y-49900D03*
G54D18*
X41700Y-63300D03*
X41700Y-62300D03*
X41700Y-61300D03*
X41700Y-60300D03*
X41700Y-59300D03*
X41700Y-58300D03*
X41700Y-57300D03*
X41700Y-56300D03*
X41700Y-55300D03*
X41700Y-54300D03*
X41700Y-53300D03*
X41700Y-52300D03*
X41700Y-51300D03*
G54D19*
X41700Y-64300D03*
G54D18*
X38700Y-51300D03*
X38700Y-52300D03*
X38700Y-53300D03*
X38700Y-54300D03*
X38700Y-55300D03*
X38700Y-56300D03*
X38700Y-57300D03*
X38700Y-58300D03*
X38700Y-59300D03*
X38700Y-60300D03*
X38700Y-61300D03*
X38700Y-62300D03*
X38700Y-63300D03*
X38700Y-64300D03*
X30200Y-65800D03*
X30200Y-64800D03*
X30200Y-63800D03*
X30200Y-62800D03*
X30200Y-61800D03*
X30200Y-60800D03*
X30200Y-59800D03*
X30200Y-58800D03*
X30200Y-57800D03*
X30200Y-56800D03*
X30200Y-55800D03*
X30200Y-54800D03*
X30200Y-53800D03*
G54D19*
X30200Y-66800D03*
G54D18*
X27200Y-53800D03*
X27200Y-54800D03*
X27200Y-55800D03*
X27200Y-56800D03*
X27200Y-57800D03*
X27200Y-58800D03*
X27200Y-59800D03*
X27200Y-60800D03*
X27200Y-61800D03*
X27200Y-62800D03*
X27200Y-63800D03*
X27200Y-64800D03*
X27200Y-65800D03*
X27200Y-66800D03*
G54D15*
X33400Y-60400D03*
G54D20*
X13600Y-59525D03*
X13600Y-55025D03*
G54D21*
X16100Y-55525D03*
X17100Y-55775D03*
X16100Y-56525D03*
X17100Y-56775D03*
X16100Y-57525D03*
X17100Y-57775D03*
X16100Y-58525D03*
G54D22*
X14800Y-60325D03*
X14800Y-54225D03*
G54D21*
X19000Y-56125D03*
X19000Y-58425D03*
X19000Y-55125D03*
X19000Y-59425D03*
G54D23*
X17100Y-58775D03*
G54D15*
X43150Y-50250D03*
G54D11*
X43150Y-51250D03*
G54D24*
X10000Y-67875D03*
X50050Y-67925D03*
X50475Y-46475D03*
X10050Y-46625D03*
M02*
