G04 (created by PCBNEW-RS274X (2012-01-19 BZR 3256)-stable) date 4/16/2012 4:42:44 PM*
G01*
G70*
G90*
%MOIN*%
G04 Gerber Fmt 3.4, Leading zero omitted, Abs format*
%FSLAX34Y34*%
G04 APERTURE LIST*
%ADD10C,0.006000*%
%ADD11C,0.005000*%
%ADD12C,0.012000*%
%ADD13C,0.008000*%
%ADD14C,0.003000*%
%ADD15C,0.010000*%
%ADD16C,0.015000*%
%ADD17C,0.012500*%
%ADD18C,0.010700*%
%ADD19C,0.003500*%
%ADD20C,0.011300*%
G04 APERTURE END LIST*
G54D10*
G54D11*
X45200Y-65800D02*
X45180Y-65994D01*
X45124Y-66181D01*
X45032Y-66353D01*
X44909Y-66504D01*
X44759Y-66629D01*
X44587Y-66721D01*
X44401Y-66779D01*
X44206Y-66799D01*
X44013Y-66782D01*
X43826Y-66727D01*
X43653Y-66636D01*
X43501Y-66514D01*
X43375Y-66364D01*
X43281Y-66193D01*
X43222Y-66007D01*
X43201Y-65813D01*
X43217Y-65620D01*
X43271Y-65432D01*
X43360Y-65259D01*
X43481Y-65106D01*
X43630Y-64979D01*
X43800Y-64884D01*
X43986Y-64824D01*
X44180Y-64801D01*
X44373Y-64816D01*
X44561Y-64868D01*
X44735Y-64956D01*
X44889Y-65076D01*
X45017Y-65224D01*
X45113Y-65394D01*
X45175Y-65579D01*
X45199Y-65773D01*
X45200Y-65800D01*
X45700Y-64300D02*
X45700Y-67300D01*
X45700Y-67300D02*
X42700Y-67300D01*
X42700Y-67300D02*
X42700Y-64300D01*
X45700Y-64300D02*
X42700Y-64300D01*
G54D12*
X49200Y-63800D02*
X49200Y-55800D01*
X49200Y-55800D02*
X50200Y-55800D01*
X50200Y-55800D02*
X50200Y-63800D01*
X50200Y-63800D02*
X49200Y-63800D01*
X50200Y-62800D02*
X49200Y-62800D01*
X36700Y-60800D02*
X37700Y-60800D01*
X37700Y-60800D02*
X37700Y-66800D01*
X37700Y-66800D02*
X36700Y-66800D01*
X36700Y-66800D02*
X36700Y-60800D01*
X36700Y-61800D02*
X37700Y-61800D01*
X37700Y-56800D02*
X37700Y-56800D01*
X36700Y-56800D02*
X37700Y-56800D01*
X37700Y-56800D02*
X37700Y-56800D01*
X37700Y-56800D02*
X37700Y-60800D01*
X37700Y-60800D02*
X36700Y-60800D01*
X36700Y-60800D02*
X36700Y-56800D01*
X36700Y-57800D02*
X37700Y-57800D01*
X48200Y-49025D02*
X48200Y-48025D01*
X48200Y-48025D02*
X50200Y-48025D01*
X50200Y-48025D02*
X50200Y-49025D01*
X50200Y-49025D02*
X48200Y-49025D01*
X20700Y-58500D02*
X20700Y-58700D01*
X20700Y-61500D02*
X20700Y-61300D01*
X20700Y-61300D02*
X21100Y-61300D01*
X21100Y-61300D02*
X21100Y-58700D01*
X21100Y-58700D02*
X20300Y-58700D01*
X20300Y-58700D02*
X20300Y-61300D01*
X20300Y-61300D02*
X20700Y-61300D01*
X20900Y-58700D02*
X21100Y-58900D01*
X31000Y-52800D02*
X31000Y-52600D01*
X31000Y-49800D02*
X31000Y-50000D01*
X31000Y-50000D02*
X30600Y-50000D01*
X30600Y-50000D02*
X30600Y-52600D01*
X30600Y-52600D02*
X31400Y-52600D01*
X31400Y-52600D02*
X31400Y-50000D01*
X31400Y-50000D02*
X31000Y-50000D01*
X30800Y-52600D02*
X30600Y-52400D01*
X22250Y-65775D02*
X22450Y-65775D01*
X25250Y-65775D02*
X25050Y-65775D01*
X25050Y-65775D02*
X25050Y-65375D01*
X25050Y-65375D02*
X22450Y-65375D01*
X22450Y-65375D02*
X22450Y-66175D01*
X22450Y-66175D02*
X25050Y-66175D01*
X25050Y-66175D02*
X25050Y-65775D01*
X22450Y-65575D02*
X22650Y-65375D01*
X22250Y-66925D02*
X22450Y-66925D01*
X25250Y-66925D02*
X25050Y-66925D01*
X25050Y-66925D02*
X25050Y-66525D01*
X25050Y-66525D02*
X22450Y-66525D01*
X22450Y-66525D02*
X22450Y-67325D01*
X22450Y-67325D02*
X25050Y-67325D01*
X25050Y-67325D02*
X25050Y-66925D01*
X22450Y-66725D02*
X22650Y-66525D01*
X25400Y-52975D02*
X25200Y-52975D01*
X22400Y-52975D02*
X22600Y-52975D01*
X22600Y-52975D02*
X22600Y-53375D01*
X22600Y-53375D02*
X25200Y-53375D01*
X25200Y-53375D02*
X25200Y-52575D01*
X25200Y-52575D02*
X22600Y-52575D01*
X22600Y-52575D02*
X22600Y-52975D01*
X25200Y-53175D02*
X25000Y-53375D01*
X22425Y-55375D02*
X22625Y-55375D01*
X25425Y-55375D02*
X25225Y-55375D01*
X25225Y-55375D02*
X25225Y-54975D01*
X25225Y-54975D02*
X22625Y-54975D01*
X22625Y-54975D02*
X22625Y-55775D01*
X22625Y-55775D02*
X25225Y-55775D01*
X25225Y-55775D02*
X25225Y-55375D01*
X22625Y-55175D02*
X22825Y-54975D01*
X22375Y-56650D02*
X22575Y-56650D01*
X25375Y-56650D02*
X25175Y-56650D01*
X25175Y-56650D02*
X25175Y-56250D01*
X25175Y-56250D02*
X22575Y-56250D01*
X22575Y-56250D02*
X22575Y-57050D01*
X22575Y-57050D02*
X25175Y-57050D01*
X25175Y-57050D02*
X25175Y-56650D01*
X22575Y-56450D02*
X22775Y-56250D01*
X25375Y-58900D02*
X25175Y-58900D01*
X22375Y-58900D02*
X22575Y-58900D01*
X22575Y-58900D02*
X22575Y-59300D01*
X22575Y-59300D02*
X25175Y-59300D01*
X25175Y-59300D02*
X25175Y-58500D01*
X25175Y-58500D02*
X22575Y-58500D01*
X22575Y-58500D02*
X22575Y-58900D01*
X25175Y-59100D02*
X24975Y-59300D01*
X40250Y-48750D02*
X40050Y-48750D01*
X37250Y-48750D02*
X37450Y-48750D01*
X37450Y-48750D02*
X37450Y-49150D01*
X37450Y-49150D02*
X40050Y-49150D01*
X40050Y-49150D02*
X40050Y-48350D01*
X40050Y-48350D02*
X37450Y-48350D01*
X37450Y-48350D02*
X37450Y-48750D01*
X40050Y-48950D02*
X39850Y-49150D01*
X35200Y-57300D02*
X35000Y-57300D01*
X32200Y-57300D02*
X32400Y-57300D01*
X32400Y-57300D02*
X32400Y-57700D01*
X32400Y-57700D02*
X35000Y-57700D01*
X35000Y-57700D02*
X35000Y-56900D01*
X35000Y-56900D02*
X32400Y-56900D01*
X32400Y-56900D02*
X32400Y-57300D01*
X35000Y-57500D02*
X34800Y-57700D01*
X35200Y-58300D02*
X35000Y-58300D01*
X32200Y-58300D02*
X32400Y-58300D01*
X32400Y-58300D02*
X32400Y-58700D01*
X32400Y-58700D02*
X35000Y-58700D01*
X35000Y-58700D02*
X35000Y-57900D01*
X35000Y-57900D02*
X32400Y-57900D01*
X32400Y-57900D02*
X32400Y-58300D01*
X35000Y-58500D02*
X34800Y-58700D01*
X38700Y-66300D02*
X38900Y-66300D01*
X41700Y-66300D02*
X41500Y-66300D01*
X41500Y-66300D02*
X41500Y-65900D01*
X41500Y-65900D02*
X38900Y-65900D01*
X38900Y-65900D02*
X38900Y-66700D01*
X38900Y-66700D02*
X41500Y-66700D01*
X41500Y-66700D02*
X41500Y-66300D01*
X38900Y-66100D02*
X39100Y-65900D01*
X43225Y-48900D02*
X44725Y-50400D01*
X44725Y-50400D02*
X45225Y-50400D01*
X45225Y-50400D02*
X45725Y-49900D01*
X45725Y-49900D02*
X45725Y-48900D01*
X45725Y-48900D02*
X44725Y-47900D01*
X44725Y-47900D02*
X43725Y-47900D01*
X43725Y-47900D02*
X43225Y-48400D01*
X43225Y-48400D02*
X43225Y-48900D01*
X30750Y-48250D02*
X32250Y-49750D01*
X32250Y-49750D02*
X32750Y-49750D01*
X32750Y-49750D02*
X33250Y-49250D01*
X33250Y-49250D02*
X33250Y-48250D01*
X33250Y-48250D02*
X32250Y-47250D01*
X32250Y-47250D02*
X31250Y-47250D01*
X31250Y-47250D02*
X30750Y-47750D01*
X30750Y-47750D02*
X30750Y-48250D01*
G54D13*
X36000Y-47130D02*
X34500Y-47130D01*
G54D14*
X35957Y-48150D02*
X35943Y-48287D01*
X35903Y-48419D01*
X35838Y-48541D01*
X35751Y-48648D01*
X35645Y-48736D01*
X35523Y-48801D01*
X35392Y-48842D01*
X35254Y-48856D01*
X35118Y-48844D01*
X34986Y-48805D01*
X34863Y-48741D01*
X34756Y-48655D01*
X34667Y-48549D01*
X34601Y-48428D01*
X34559Y-48296D01*
X34544Y-48159D01*
X34555Y-48023D01*
X34593Y-47890D01*
X34656Y-47768D01*
X34742Y-47659D01*
X34847Y-47570D01*
X34967Y-47503D01*
X35099Y-47460D01*
X35236Y-47444D01*
X35372Y-47454D01*
X35505Y-47491D01*
X35628Y-47554D01*
X35737Y-47639D01*
X35827Y-47743D01*
X35895Y-47863D01*
X35939Y-47994D01*
X35956Y-48131D01*
X35957Y-48150D01*
G54D15*
X34500Y-47151D02*
X34416Y-47220D01*
X34338Y-47296D01*
X34267Y-47379D01*
X34203Y-47468D01*
X34148Y-47562D01*
X34101Y-47660D01*
X34062Y-47762D01*
X34033Y-47867D01*
X34013Y-47974D01*
X34002Y-48083D01*
X34001Y-48191D01*
X34010Y-48300D01*
X34027Y-48407D01*
X34054Y-48513D01*
X34091Y-48616D01*
X34136Y-48715D01*
X34189Y-48810D01*
X34251Y-48900D01*
X34320Y-48984D01*
X34396Y-49062D01*
X34479Y-49133D01*
X34568Y-49197D01*
X34662Y-49252D01*
X34760Y-49299D01*
X34862Y-49338D01*
X34967Y-49367D01*
X35074Y-49387D01*
X35183Y-49398D01*
X35291Y-49399D01*
X35400Y-49390D01*
X35507Y-49373D01*
X35613Y-49346D01*
X35716Y-49309D01*
X35815Y-49264D01*
X35910Y-49211D01*
X36000Y-49149D01*
X36084Y-49080D01*
X36162Y-49004D01*
X36233Y-48921D01*
X36297Y-48832D01*
X36352Y-48738D01*
X36399Y-48640D01*
X36438Y-48538D01*
X36467Y-48433D01*
X36487Y-48326D01*
X36498Y-48217D01*
X36499Y-48109D01*
X36490Y-48000D01*
X36473Y-47893D01*
X36446Y-47787D01*
X36409Y-47684D01*
X36364Y-47585D01*
X36311Y-47490D01*
X36249Y-47400D01*
X36180Y-47316D01*
X36104Y-47238D01*
X36021Y-47167D01*
X36000Y-47151D01*
G54D10*
X34800Y-48150D02*
X34802Y-48189D01*
X34807Y-48228D01*
X34816Y-48266D01*
X34828Y-48303D01*
X34843Y-48340D01*
X34861Y-48374D01*
X34882Y-48408D01*
X34906Y-48439D01*
X34932Y-48468D01*
X34961Y-48494D01*
X34992Y-48518D01*
X35026Y-48539D01*
X35060Y-48557D01*
X35097Y-48572D01*
X35134Y-48584D01*
X35172Y-48593D01*
X35211Y-48598D01*
X35250Y-48600D01*
X35700Y-48150D02*
X35698Y-48111D01*
X35693Y-48072D01*
X35684Y-48034D01*
X35672Y-47997D01*
X35657Y-47960D01*
X35639Y-47926D01*
X35618Y-47892D01*
X35594Y-47861D01*
X35568Y-47832D01*
X35539Y-47806D01*
X35508Y-47782D01*
X35475Y-47761D01*
X35440Y-47743D01*
X35403Y-47728D01*
X35366Y-47716D01*
X35328Y-47707D01*
X35289Y-47702D01*
X35250Y-47700D01*
X34600Y-48150D02*
X34603Y-48206D01*
X34610Y-48262D01*
X34623Y-48318D01*
X34640Y-48372D01*
X34661Y-48424D01*
X34688Y-48475D01*
X34718Y-48522D01*
X34753Y-48567D01*
X34791Y-48609D01*
X34833Y-48647D01*
X34878Y-48682D01*
X34926Y-48712D01*
X34976Y-48739D01*
X35028Y-48760D01*
X35082Y-48777D01*
X35138Y-48790D01*
X35194Y-48797D01*
X35250Y-48800D01*
X35900Y-48150D02*
X35897Y-48094D01*
X35890Y-48038D01*
X35877Y-47982D01*
X35860Y-47928D01*
X35839Y-47876D01*
X35812Y-47826D01*
X35782Y-47778D01*
X35747Y-47733D01*
X35709Y-47691D01*
X35667Y-47653D01*
X35622Y-47618D01*
X35575Y-47588D01*
X35524Y-47561D01*
X35472Y-47540D01*
X35418Y-47523D01*
X35362Y-47510D01*
X35306Y-47503D01*
X35250Y-47500D01*
X34400Y-48150D02*
X34404Y-48224D01*
X34413Y-48297D01*
X34429Y-48369D01*
X34452Y-48440D01*
X34480Y-48509D01*
X34514Y-48574D01*
X34554Y-48637D01*
X34599Y-48696D01*
X34649Y-48751D01*
X34704Y-48801D01*
X34763Y-48846D01*
X34826Y-48886D01*
X34891Y-48920D01*
X34960Y-48948D01*
X35031Y-48971D01*
X35103Y-48987D01*
X35176Y-48996D01*
X35250Y-49000D01*
X36100Y-48150D02*
X36096Y-48076D01*
X36087Y-48003D01*
X36071Y-47931D01*
X36048Y-47860D01*
X36020Y-47791D01*
X35986Y-47726D01*
X35946Y-47663D01*
X35901Y-47604D01*
X35851Y-47549D01*
X35796Y-47499D01*
X35737Y-47454D01*
X35675Y-47414D01*
X35609Y-47380D01*
X35540Y-47352D01*
X35469Y-47329D01*
X35397Y-47313D01*
X35324Y-47304D01*
X35250Y-47300D01*
X43200Y-59050D02*
X42700Y-58550D01*
X42700Y-54050D02*
X43200Y-53550D01*
X44200Y-53550D02*
X44700Y-54050D01*
X44200Y-59050D02*
X44700Y-58550D01*
X42700Y-58550D02*
X42700Y-54050D01*
X43200Y-59050D02*
X44200Y-59050D01*
X44700Y-58550D02*
X44700Y-54050D01*
X44200Y-53550D02*
X43200Y-53550D01*
X24800Y-65150D02*
X24300Y-64650D01*
X24300Y-60150D02*
X24800Y-59650D01*
X25800Y-59650D02*
X26300Y-60150D01*
X25800Y-65150D02*
X26300Y-64650D01*
X24300Y-64650D02*
X24300Y-60150D01*
X24800Y-65150D02*
X25800Y-65150D01*
X26300Y-64650D02*
X26300Y-60150D01*
X25800Y-59650D02*
X24800Y-59650D01*
G54D12*
X46725Y-49900D02*
X47025Y-49900D01*
X47025Y-49900D02*
X47025Y-50300D01*
X47025Y-50300D02*
X49425Y-50300D01*
X49425Y-50300D02*
X49425Y-49900D01*
X49425Y-49900D02*
X49725Y-49900D01*
X49425Y-49900D02*
X49425Y-49500D01*
X49425Y-49500D02*
X47025Y-49500D01*
X47025Y-49500D02*
X47025Y-49900D01*
X47225Y-50300D02*
X47225Y-49500D01*
X47325Y-49500D02*
X47325Y-50300D01*
G54D16*
X39200Y-65300D02*
X39200Y-50300D01*
X39200Y-50300D02*
X41200Y-50300D01*
X41200Y-50300D02*
X41200Y-65300D01*
X41200Y-65300D02*
X39200Y-65300D01*
X39700Y-65300D02*
X39700Y-64800D01*
X39700Y-64800D02*
X40700Y-64800D01*
X40700Y-64800D02*
X40700Y-65300D01*
X27700Y-67800D02*
X27700Y-52800D01*
X27700Y-52800D02*
X29700Y-52800D01*
X29700Y-52800D02*
X29700Y-67800D01*
X29700Y-67800D02*
X27700Y-67800D01*
X28200Y-67800D02*
X28200Y-67300D01*
X28200Y-67300D02*
X29200Y-67300D01*
X29200Y-67300D02*
X29200Y-67800D01*
G54D17*
X32900Y-60900D02*
X33900Y-60900D01*
X32900Y-59900D02*
X33900Y-59900D01*
G54D12*
X32900Y-60900D02*
X32900Y-59900D01*
X33900Y-59900D02*
X33900Y-60900D01*
X09200Y-60325D02*
X13900Y-60325D01*
X15150Y-60325D02*
X19050Y-60325D01*
X09200Y-54025D02*
X13900Y-54025D01*
X15150Y-54025D02*
X19050Y-54025D01*
X19050Y-60325D02*
X19050Y-59925D01*
X19050Y-56625D02*
X19050Y-57925D01*
X19050Y-54025D02*
X19050Y-54525D01*
X09182Y-54025D02*
X09182Y-60325D01*
X42650Y-49750D02*
X43650Y-49750D01*
X43650Y-49750D02*
X43650Y-51750D01*
X43650Y-51750D02*
X42650Y-51750D01*
X42650Y-51750D02*
X42650Y-49750D01*
G54D16*
X10900Y-67875D02*
X10882Y-68049D01*
X10832Y-68217D01*
X10749Y-68373D01*
X10638Y-68509D01*
X10503Y-68621D01*
X10348Y-68704D01*
X10180Y-68756D01*
X10006Y-68774D01*
X09832Y-68759D01*
X09663Y-68709D01*
X09508Y-68628D01*
X09371Y-68518D01*
X09258Y-68383D01*
X09173Y-68229D01*
X09120Y-68062D01*
X09101Y-67887D01*
X09115Y-67713D01*
X09164Y-67544D01*
X09244Y-67388D01*
X09353Y-67250D01*
X09487Y-67136D01*
X09640Y-67051D01*
X09807Y-66996D01*
X09982Y-66976D01*
X10156Y-66989D01*
X10325Y-67036D01*
X10482Y-67116D01*
X10620Y-67224D01*
X10735Y-67357D01*
X10822Y-67509D01*
X10877Y-67676D01*
X10899Y-67850D01*
X10900Y-67875D01*
X50950Y-67925D02*
X50932Y-68099D01*
X50882Y-68267D01*
X50799Y-68423D01*
X50688Y-68559D01*
X50553Y-68671D01*
X50398Y-68754D01*
X50230Y-68806D01*
X50056Y-68824D01*
X49882Y-68809D01*
X49713Y-68759D01*
X49558Y-68678D01*
X49421Y-68568D01*
X49308Y-68433D01*
X49223Y-68279D01*
X49170Y-68112D01*
X49151Y-67937D01*
X49165Y-67763D01*
X49214Y-67594D01*
X49294Y-67438D01*
X49403Y-67300D01*
X49537Y-67186D01*
X49690Y-67101D01*
X49857Y-67046D01*
X50032Y-67026D01*
X50206Y-67039D01*
X50375Y-67086D01*
X50532Y-67166D01*
X50670Y-67274D01*
X50785Y-67407D01*
X50872Y-67559D01*
X50927Y-67726D01*
X50949Y-67900D01*
X50950Y-67925D01*
X51375Y-46475D02*
X51357Y-46649D01*
X51307Y-46817D01*
X51224Y-46973D01*
X51113Y-47109D01*
X50978Y-47221D01*
X50823Y-47304D01*
X50655Y-47356D01*
X50481Y-47374D01*
X50307Y-47359D01*
X50138Y-47309D01*
X49983Y-47228D01*
X49846Y-47118D01*
X49733Y-46983D01*
X49648Y-46829D01*
X49595Y-46662D01*
X49576Y-46487D01*
X49590Y-46313D01*
X49639Y-46144D01*
X49719Y-45988D01*
X49828Y-45850D01*
X49962Y-45736D01*
X50115Y-45651D01*
X50282Y-45596D01*
X50457Y-45576D01*
X50631Y-45589D01*
X50800Y-45636D01*
X50957Y-45716D01*
X51095Y-45824D01*
X51210Y-45957D01*
X51297Y-46109D01*
X51352Y-46276D01*
X51374Y-46450D01*
X51375Y-46475D01*
X10950Y-46625D02*
X10932Y-46799D01*
X10882Y-46967D01*
X10799Y-47123D01*
X10688Y-47259D01*
X10553Y-47371D01*
X10398Y-47454D01*
X10230Y-47506D01*
X10056Y-47524D01*
X09882Y-47509D01*
X09713Y-47459D01*
X09558Y-47378D01*
X09421Y-47268D01*
X09308Y-47133D01*
X09223Y-46979D01*
X09170Y-46812D01*
X09151Y-46637D01*
X09165Y-46463D01*
X09214Y-46294D01*
X09294Y-46138D01*
X09403Y-46000D01*
X09537Y-45886D01*
X09690Y-45801D01*
X09857Y-45746D01*
X10032Y-45726D01*
X10206Y-45739D01*
X10375Y-45786D01*
X10532Y-45866D01*
X10670Y-45974D01*
X10785Y-46107D01*
X10872Y-46259D01*
X10927Y-46426D01*
X10949Y-46600D01*
X10950Y-46625D01*
G54D13*
X44643Y-66333D02*
X44662Y-66276D01*
X44662Y-66180D01*
X44643Y-66142D01*
X44624Y-66123D01*
X44586Y-66104D01*
X44548Y-66104D01*
X44510Y-66123D01*
X44490Y-66142D01*
X44471Y-66180D01*
X44452Y-66257D01*
X44433Y-66295D01*
X44414Y-66314D01*
X44376Y-66333D01*
X44338Y-66333D01*
X44300Y-66314D01*
X44281Y-66295D01*
X44262Y-66257D01*
X44262Y-66161D01*
X44281Y-66104D01*
X44262Y-65971D02*
X44662Y-65876D01*
X44376Y-65799D01*
X44662Y-65723D01*
X44262Y-65628D01*
X44662Y-65266D02*
X44662Y-65495D01*
X44662Y-65381D02*
X44262Y-65381D01*
X44319Y-65419D01*
X44357Y-65457D01*
X44376Y-65495D01*
X43962Y-66295D02*
X43771Y-66429D01*
X43962Y-66524D02*
X43562Y-66524D01*
X43562Y-66371D01*
X43581Y-66333D01*
X43600Y-66314D01*
X43638Y-66295D01*
X43695Y-66295D01*
X43733Y-66314D01*
X43752Y-66333D01*
X43771Y-66371D01*
X43771Y-66524D01*
X43943Y-65971D02*
X43962Y-66009D01*
X43962Y-66086D01*
X43943Y-66124D01*
X43905Y-66143D01*
X43752Y-66143D01*
X43714Y-66124D01*
X43695Y-66086D01*
X43695Y-66009D01*
X43714Y-65971D01*
X43752Y-65952D01*
X43790Y-65952D01*
X43829Y-66143D01*
X43943Y-65800D02*
X43962Y-65762D01*
X43962Y-65686D01*
X43943Y-65647D01*
X43905Y-65628D01*
X43886Y-65628D01*
X43848Y-65647D01*
X43829Y-65686D01*
X43829Y-65743D01*
X43810Y-65781D01*
X43771Y-65800D01*
X43752Y-65800D01*
X43714Y-65781D01*
X43695Y-65743D01*
X43695Y-65686D01*
X43714Y-65647D01*
X43943Y-65304D02*
X43962Y-65342D01*
X43962Y-65419D01*
X43943Y-65457D01*
X43905Y-65476D01*
X43752Y-65476D01*
X43714Y-65457D01*
X43695Y-65419D01*
X43695Y-65342D01*
X43714Y-65304D01*
X43752Y-65285D01*
X43790Y-65285D01*
X43829Y-65476D01*
X43695Y-65171D02*
X43695Y-65019D01*
X43562Y-65114D02*
X43905Y-65114D01*
X43943Y-65095D01*
X43962Y-65057D01*
X43962Y-65019D01*
G54D18*
X48975Y-62616D02*
X48294Y-62616D01*
X48294Y-62453D01*
X48327Y-62412D01*
X48359Y-62392D01*
X48424Y-62372D01*
X48521Y-62372D01*
X48586Y-62392D01*
X48618Y-62412D01*
X48651Y-62453D01*
X48651Y-62616D01*
X48975Y-61964D02*
X48975Y-62208D01*
X48975Y-62086D02*
X48294Y-62086D01*
X48391Y-62127D01*
X48456Y-62168D01*
X48489Y-62208D01*
G54D15*
X48886Y-58647D02*
X48914Y-58666D01*
X48943Y-58723D01*
X48943Y-58761D01*
X48914Y-58819D01*
X48857Y-58857D01*
X48800Y-58876D01*
X48686Y-58895D01*
X48600Y-58895D01*
X48486Y-58876D01*
X48429Y-58857D01*
X48371Y-58819D01*
X48343Y-58761D01*
X48343Y-58723D01*
X48371Y-58666D01*
X48400Y-58647D01*
X48343Y-58400D02*
X48343Y-58323D01*
X48371Y-58285D01*
X48429Y-58247D01*
X48543Y-58228D01*
X48743Y-58228D01*
X48857Y-58247D01*
X48914Y-58285D01*
X48943Y-58323D01*
X48943Y-58400D01*
X48914Y-58438D01*
X48857Y-58476D01*
X48743Y-58495D01*
X48543Y-58495D01*
X48429Y-58476D01*
X48371Y-58438D01*
X48343Y-58400D01*
X48943Y-58057D02*
X48343Y-58057D01*
X48943Y-57828D01*
X48343Y-57828D01*
X48943Y-57638D02*
X48343Y-57638D01*
X48943Y-57409D01*
X48343Y-57409D01*
X49000Y-57314D02*
X49000Y-57009D01*
X48600Y-56857D02*
X48571Y-56895D01*
X48543Y-56914D01*
X48486Y-56933D01*
X48457Y-56933D01*
X48400Y-56914D01*
X48371Y-56895D01*
X48343Y-56857D01*
X48343Y-56780D01*
X48371Y-56742D01*
X48400Y-56723D01*
X48457Y-56704D01*
X48486Y-56704D01*
X48543Y-56723D01*
X48571Y-56742D01*
X48600Y-56780D01*
X48600Y-56857D01*
X48629Y-56895D01*
X48657Y-56914D01*
X48714Y-56933D01*
X48829Y-56933D01*
X48886Y-56914D01*
X48914Y-56895D01*
X48943Y-56857D01*
X48943Y-56780D01*
X48914Y-56742D01*
X48886Y-56723D01*
X48829Y-56704D01*
X48714Y-56704D01*
X48657Y-56723D01*
X48629Y-56742D01*
X48600Y-56780D01*
G54D18*
X38475Y-64116D02*
X37794Y-64116D01*
X37794Y-63953D01*
X37827Y-63912D01*
X37859Y-63892D01*
X37924Y-63872D01*
X38021Y-63872D01*
X38086Y-63892D01*
X38118Y-63912D01*
X38151Y-63953D01*
X38151Y-64116D01*
X37794Y-63484D02*
X37794Y-63688D01*
X38118Y-63708D01*
X38086Y-63688D01*
X38054Y-63647D01*
X38054Y-63545D01*
X38086Y-63505D01*
X38118Y-63484D01*
X38183Y-63464D01*
X38345Y-63464D01*
X38410Y-63484D01*
X38443Y-63505D01*
X38475Y-63545D01*
X38475Y-63647D01*
X38443Y-63688D01*
X38410Y-63708D01*
X38476Y-59116D02*
X37793Y-59116D01*
X37793Y-58953D01*
X37825Y-58912D01*
X37858Y-58892D01*
X37923Y-58872D01*
X38021Y-58872D01*
X38086Y-58892D01*
X38118Y-58912D01*
X38151Y-58953D01*
X38151Y-59116D01*
X37793Y-58505D02*
X37793Y-58586D01*
X37825Y-58627D01*
X37858Y-58647D01*
X37956Y-58688D01*
X38086Y-58708D01*
X38346Y-58708D01*
X38411Y-58688D01*
X38443Y-58668D01*
X38476Y-58627D01*
X38476Y-58545D01*
X38443Y-58505D01*
X38411Y-58484D01*
X38346Y-58464D01*
X38183Y-58464D01*
X38118Y-58484D01*
X38086Y-58505D01*
X38053Y-58545D01*
X38053Y-58627D01*
X38086Y-58668D01*
X38118Y-58688D01*
X38183Y-58708D01*
X48884Y-47800D02*
X48884Y-47119D01*
X49047Y-47119D01*
X49088Y-47152D01*
X49108Y-47184D01*
X49128Y-47249D01*
X49128Y-47346D01*
X49108Y-47411D01*
X49088Y-47443D01*
X49047Y-47476D01*
X48884Y-47476D01*
X49292Y-47184D02*
X49312Y-47152D01*
X49353Y-47119D01*
X49455Y-47119D01*
X49495Y-47152D01*
X49516Y-47184D01*
X49536Y-47249D01*
X49536Y-47314D01*
X49516Y-47411D01*
X49271Y-47800D01*
X49536Y-47800D01*
G54D13*
X20923Y-60083D02*
X20923Y-60321D01*
X20373Y-60321D01*
X20923Y-59654D02*
X20923Y-59940D01*
X20923Y-59797D02*
X20373Y-59797D01*
X20451Y-59845D01*
X20504Y-59892D01*
X20530Y-59940D01*
X31223Y-51621D02*
X30961Y-51788D01*
X31223Y-51907D02*
X30673Y-51907D01*
X30673Y-51716D01*
X30699Y-51669D01*
X30725Y-51645D01*
X30777Y-51621D01*
X30856Y-51621D01*
X30908Y-51645D01*
X30935Y-51669D01*
X30961Y-51716D01*
X30961Y-51907D01*
X31223Y-51145D02*
X31223Y-51431D01*
X31223Y-51288D02*
X30673Y-51288D01*
X30751Y-51336D01*
X30804Y-51383D01*
X30830Y-51431D01*
X31223Y-50669D02*
X31223Y-50955D01*
X31223Y-50812D02*
X30673Y-50812D01*
X30751Y-50860D01*
X30804Y-50907D01*
X30830Y-50955D01*
X23429Y-65998D02*
X23262Y-65736D01*
X23143Y-65998D02*
X23143Y-65448D01*
X23334Y-65448D01*
X23381Y-65474D01*
X23405Y-65500D01*
X23429Y-65552D01*
X23429Y-65631D01*
X23405Y-65683D01*
X23381Y-65710D01*
X23334Y-65736D01*
X23143Y-65736D01*
X23905Y-65998D02*
X23619Y-65998D01*
X23762Y-65998D02*
X23762Y-65448D01*
X23714Y-65526D01*
X23667Y-65579D01*
X23619Y-65605D01*
X24214Y-65448D02*
X24262Y-65448D01*
X24310Y-65474D01*
X24333Y-65500D01*
X24357Y-65552D01*
X24381Y-65657D01*
X24381Y-65788D01*
X24357Y-65893D01*
X24333Y-65945D01*
X24310Y-65971D01*
X24262Y-65998D01*
X24214Y-65998D01*
X24167Y-65971D01*
X24143Y-65945D01*
X24119Y-65893D01*
X24095Y-65788D01*
X24095Y-65657D01*
X24119Y-65552D01*
X24143Y-65500D01*
X24167Y-65474D01*
X24214Y-65448D01*
X23667Y-67148D02*
X23500Y-66886D01*
X23381Y-67148D02*
X23381Y-66598D01*
X23572Y-66598D01*
X23619Y-66624D01*
X23643Y-66650D01*
X23667Y-66702D01*
X23667Y-66781D01*
X23643Y-66833D01*
X23619Y-66860D01*
X23572Y-66886D01*
X23381Y-66886D01*
X23905Y-67148D02*
X24000Y-67148D01*
X24048Y-67121D01*
X24072Y-67095D01*
X24119Y-67017D01*
X24143Y-66912D01*
X24143Y-66702D01*
X24119Y-66650D01*
X24095Y-66624D01*
X24048Y-66598D01*
X23952Y-66598D01*
X23905Y-66624D01*
X23881Y-66650D01*
X23857Y-66702D01*
X23857Y-66833D01*
X23881Y-66886D01*
X23905Y-66912D01*
X23952Y-66938D01*
X24048Y-66938D01*
X24095Y-66912D01*
X24119Y-66886D01*
X24143Y-66833D01*
X23817Y-53198D02*
X23650Y-52936D01*
X23531Y-53198D02*
X23531Y-52648D01*
X23722Y-52648D01*
X23769Y-52674D01*
X23793Y-52700D01*
X23817Y-52752D01*
X23817Y-52831D01*
X23793Y-52883D01*
X23769Y-52910D01*
X23722Y-52936D01*
X23531Y-52936D01*
X24102Y-52883D02*
X24055Y-52857D01*
X24031Y-52831D01*
X24007Y-52779D01*
X24007Y-52752D01*
X24031Y-52700D01*
X24055Y-52674D01*
X24102Y-52648D01*
X24198Y-52648D01*
X24245Y-52674D01*
X24269Y-52700D01*
X24293Y-52752D01*
X24293Y-52779D01*
X24269Y-52831D01*
X24245Y-52857D01*
X24198Y-52883D01*
X24102Y-52883D01*
X24055Y-52910D01*
X24031Y-52936D01*
X24007Y-52988D01*
X24007Y-53093D01*
X24031Y-53145D01*
X24055Y-53171D01*
X24102Y-53198D01*
X24198Y-53198D01*
X24245Y-53171D01*
X24269Y-53145D01*
X24293Y-53093D01*
X24293Y-52988D01*
X24269Y-52936D01*
X24245Y-52910D01*
X24198Y-52883D01*
X23842Y-55598D02*
X23675Y-55336D01*
X23556Y-55598D02*
X23556Y-55048D01*
X23747Y-55048D01*
X23794Y-55074D01*
X23818Y-55100D01*
X23842Y-55152D01*
X23842Y-55231D01*
X23818Y-55283D01*
X23794Y-55310D01*
X23747Y-55336D01*
X23556Y-55336D01*
X24008Y-55048D02*
X24342Y-55048D01*
X24127Y-55598D01*
X23792Y-56873D02*
X23625Y-56611D01*
X23506Y-56873D02*
X23506Y-56323D01*
X23697Y-56323D01*
X23744Y-56349D01*
X23768Y-56375D01*
X23792Y-56427D01*
X23792Y-56506D01*
X23768Y-56558D01*
X23744Y-56585D01*
X23697Y-56611D01*
X23506Y-56611D01*
X24220Y-56323D02*
X24125Y-56323D01*
X24077Y-56349D01*
X24054Y-56375D01*
X24006Y-56454D01*
X23982Y-56558D01*
X23982Y-56768D01*
X24006Y-56820D01*
X24030Y-56846D01*
X24077Y-56873D01*
X24173Y-56873D01*
X24220Y-56846D01*
X24244Y-56820D01*
X24268Y-56768D01*
X24268Y-56637D01*
X24244Y-56585D01*
X24220Y-56558D01*
X24173Y-56532D01*
X24077Y-56532D01*
X24030Y-56558D01*
X24006Y-56585D01*
X23982Y-56637D01*
X23792Y-59123D02*
X23625Y-58861D01*
X23506Y-59123D02*
X23506Y-58573D01*
X23697Y-58573D01*
X23744Y-58599D01*
X23768Y-58625D01*
X23792Y-58677D01*
X23792Y-58756D01*
X23768Y-58808D01*
X23744Y-58835D01*
X23697Y-58861D01*
X23506Y-58861D01*
X24244Y-58573D02*
X24006Y-58573D01*
X23982Y-58835D01*
X24006Y-58808D01*
X24054Y-58782D01*
X24173Y-58782D01*
X24220Y-58808D01*
X24244Y-58835D01*
X24268Y-58887D01*
X24268Y-59018D01*
X24244Y-59070D01*
X24220Y-59096D01*
X24173Y-59123D01*
X24054Y-59123D01*
X24006Y-59096D01*
X23982Y-59070D01*
X38667Y-48973D02*
X38500Y-48711D01*
X38381Y-48973D02*
X38381Y-48423D01*
X38572Y-48423D01*
X38619Y-48449D01*
X38643Y-48475D01*
X38667Y-48527D01*
X38667Y-48606D01*
X38643Y-48658D01*
X38619Y-48685D01*
X38572Y-48711D01*
X38381Y-48711D01*
X39095Y-48606D02*
X39095Y-48973D01*
X38976Y-48396D02*
X38857Y-48789D01*
X39167Y-48789D01*
X33617Y-57523D02*
X33450Y-57261D01*
X33331Y-57523D02*
X33331Y-56973D01*
X33522Y-56973D01*
X33569Y-56999D01*
X33593Y-57025D01*
X33617Y-57077D01*
X33617Y-57156D01*
X33593Y-57208D01*
X33569Y-57235D01*
X33522Y-57261D01*
X33331Y-57261D01*
X33783Y-56973D02*
X34093Y-56973D01*
X33926Y-57182D01*
X33998Y-57182D01*
X34045Y-57208D01*
X34069Y-57235D01*
X34093Y-57287D01*
X34093Y-57418D01*
X34069Y-57470D01*
X34045Y-57496D01*
X33998Y-57523D01*
X33855Y-57523D01*
X33807Y-57496D01*
X33783Y-57470D01*
X33617Y-58523D02*
X33450Y-58261D01*
X33331Y-58523D02*
X33331Y-57973D01*
X33522Y-57973D01*
X33569Y-57999D01*
X33593Y-58025D01*
X33617Y-58077D01*
X33617Y-58156D01*
X33593Y-58208D01*
X33569Y-58235D01*
X33522Y-58261D01*
X33331Y-58261D01*
X33807Y-58025D02*
X33831Y-57999D01*
X33879Y-57973D01*
X33998Y-57973D01*
X34045Y-57999D01*
X34069Y-58025D01*
X34093Y-58077D01*
X34093Y-58130D01*
X34069Y-58208D01*
X33783Y-58523D01*
X34093Y-58523D01*
X40117Y-66523D02*
X39950Y-66261D01*
X39831Y-66523D02*
X39831Y-65973D01*
X40022Y-65973D01*
X40069Y-65999D01*
X40093Y-66025D01*
X40117Y-66077D01*
X40117Y-66156D01*
X40093Y-66208D01*
X40069Y-66235D01*
X40022Y-66261D01*
X39831Y-66261D01*
X40593Y-66523D02*
X40307Y-66523D01*
X40450Y-66523D02*
X40450Y-65973D01*
X40402Y-66051D01*
X40355Y-66104D01*
X40307Y-66130D01*
X42487Y-48955D02*
X42811Y-48955D01*
X42849Y-48936D01*
X42868Y-48917D01*
X42887Y-48879D01*
X42887Y-48802D01*
X42868Y-48764D01*
X42849Y-48745D01*
X42811Y-48726D01*
X42487Y-48726D01*
X42525Y-48555D02*
X42506Y-48536D01*
X42487Y-48498D01*
X42487Y-48402D01*
X42506Y-48364D01*
X42525Y-48345D01*
X42563Y-48326D01*
X42601Y-48326D01*
X42658Y-48345D01*
X42887Y-48574D01*
X42887Y-48326D01*
X45987Y-49767D02*
X45987Y-49500D01*
X46387Y-49672D01*
X46158Y-49291D02*
X46139Y-49329D01*
X46120Y-49348D01*
X46082Y-49367D01*
X46063Y-49367D01*
X46025Y-49348D01*
X46006Y-49329D01*
X45987Y-49291D01*
X45987Y-49214D01*
X46006Y-49176D01*
X46025Y-49157D01*
X46063Y-49138D01*
X46082Y-49138D01*
X46120Y-49157D01*
X46139Y-49176D01*
X46158Y-49214D01*
X46158Y-49291D01*
X46177Y-49329D01*
X46196Y-49348D01*
X46235Y-49367D01*
X46311Y-49367D01*
X46349Y-49348D01*
X46368Y-49329D01*
X46387Y-49291D01*
X46387Y-49214D01*
X46368Y-49176D01*
X46349Y-49157D01*
X46311Y-49138D01*
X46235Y-49138D01*
X46196Y-49157D01*
X46177Y-49176D01*
X46158Y-49214D01*
X46387Y-48776D02*
X46387Y-48967D01*
X45987Y-48967D01*
X45987Y-48567D02*
X45987Y-48528D01*
X46006Y-48490D01*
X46025Y-48471D01*
X46063Y-48452D01*
X46139Y-48433D01*
X46235Y-48433D01*
X46311Y-48452D01*
X46349Y-48471D01*
X46368Y-48490D01*
X46387Y-48528D01*
X46387Y-48567D01*
X46368Y-48605D01*
X46349Y-48624D01*
X46311Y-48643D01*
X46235Y-48662D01*
X46139Y-48662D01*
X46063Y-48643D01*
X46025Y-48624D01*
X46006Y-48605D01*
X45987Y-48567D01*
X45987Y-48071D02*
X45987Y-48262D01*
X46177Y-48281D01*
X46158Y-48262D01*
X46139Y-48224D01*
X46139Y-48128D01*
X46158Y-48090D01*
X46177Y-48071D01*
X46215Y-48052D01*
X46311Y-48052D01*
X46349Y-48071D01*
X46368Y-48090D01*
X46387Y-48128D01*
X46387Y-48224D01*
X46368Y-48262D01*
X46349Y-48281D01*
X30012Y-48305D02*
X30336Y-48305D01*
X30374Y-48286D01*
X30393Y-48267D01*
X30412Y-48229D01*
X30412Y-48152D01*
X30393Y-48114D01*
X30374Y-48095D01*
X30336Y-48076D01*
X30012Y-48076D01*
X30145Y-47714D02*
X30412Y-47714D01*
X29993Y-47810D02*
X30279Y-47905D01*
X30279Y-47657D01*
X33512Y-49117D02*
X33512Y-48850D01*
X33912Y-49022D01*
X33683Y-48641D02*
X33664Y-48679D01*
X33645Y-48698D01*
X33607Y-48717D01*
X33588Y-48717D01*
X33550Y-48698D01*
X33531Y-48679D01*
X33512Y-48641D01*
X33512Y-48564D01*
X33531Y-48526D01*
X33550Y-48507D01*
X33588Y-48488D01*
X33607Y-48488D01*
X33645Y-48507D01*
X33664Y-48526D01*
X33683Y-48564D01*
X33683Y-48641D01*
X33702Y-48679D01*
X33721Y-48698D01*
X33760Y-48717D01*
X33836Y-48717D01*
X33874Y-48698D01*
X33893Y-48679D01*
X33912Y-48641D01*
X33912Y-48564D01*
X33893Y-48526D01*
X33874Y-48507D01*
X33836Y-48488D01*
X33760Y-48488D01*
X33721Y-48507D01*
X33702Y-48526D01*
X33683Y-48564D01*
X33912Y-48126D02*
X33912Y-48317D01*
X33512Y-48317D01*
X33512Y-48031D02*
X33512Y-47783D01*
X33664Y-47917D01*
X33664Y-47859D01*
X33683Y-47821D01*
X33702Y-47802D01*
X33740Y-47783D01*
X33836Y-47783D01*
X33874Y-47802D01*
X33893Y-47821D01*
X33912Y-47859D01*
X33912Y-47974D01*
X33893Y-48012D01*
X33874Y-48031D01*
X33512Y-47650D02*
X33512Y-47402D01*
X33664Y-47536D01*
X33664Y-47478D01*
X33683Y-47440D01*
X33702Y-47421D01*
X33740Y-47402D01*
X33836Y-47402D01*
X33874Y-47421D01*
X33893Y-47440D01*
X33912Y-47478D01*
X33912Y-47593D01*
X33893Y-47631D01*
X33874Y-47650D01*
G54D19*
X33871Y-48472D02*
X33571Y-48472D01*
X33571Y-48400D01*
X33586Y-48357D01*
X33614Y-48329D01*
X33643Y-48314D01*
X33700Y-48300D01*
X33743Y-48300D01*
X33800Y-48314D01*
X33829Y-48329D01*
X33857Y-48357D01*
X33871Y-48400D01*
X33871Y-48472D01*
X33600Y-48186D02*
X33586Y-48172D01*
X33571Y-48143D01*
X33571Y-48072D01*
X33586Y-48043D01*
X33600Y-48029D01*
X33629Y-48014D01*
X33657Y-48014D01*
X33700Y-48029D01*
X33871Y-48200D01*
X33871Y-48014D01*
X36871Y-48443D02*
X36871Y-48586D01*
X36571Y-48586D01*
X36714Y-48343D02*
X36714Y-48243D01*
X36871Y-48200D02*
X36871Y-48343D01*
X36571Y-48343D01*
X36571Y-48200D01*
X36871Y-48072D02*
X36571Y-48072D01*
X36571Y-48000D01*
X36586Y-47957D01*
X36614Y-47929D01*
X36643Y-47914D01*
X36700Y-47900D01*
X36743Y-47900D01*
X36800Y-47914D01*
X36829Y-47929D01*
X36857Y-47957D01*
X36871Y-48000D01*
X36871Y-48072D01*
G54D10*
X42732Y-56755D02*
X43182Y-56421D01*
X42732Y-56421D02*
X43182Y-56755D01*
X43182Y-55969D02*
X43182Y-56255D01*
X43182Y-56112D02*
X42732Y-56112D01*
X42796Y-56160D01*
X42839Y-56207D01*
X42861Y-56255D01*
X44532Y-57109D02*
X44532Y-57395D01*
X44532Y-57252D02*
X44082Y-57252D01*
X44146Y-57300D01*
X44189Y-57347D01*
X44211Y-57395D01*
X44082Y-56681D02*
X44082Y-56776D01*
X44104Y-56824D01*
X44125Y-56847D01*
X44189Y-56895D01*
X44275Y-56919D01*
X44446Y-56919D01*
X44489Y-56895D01*
X44511Y-56871D01*
X44532Y-56824D01*
X44532Y-56728D01*
X44511Y-56681D01*
X44489Y-56657D01*
X44446Y-56633D01*
X44339Y-56633D01*
X44296Y-56657D01*
X44275Y-56681D01*
X44254Y-56728D01*
X44254Y-56824D01*
X44275Y-56871D01*
X44296Y-56895D01*
X44339Y-56919D01*
X44532Y-56419D02*
X44082Y-56419D01*
X44404Y-56252D01*
X44082Y-56086D01*
X44532Y-56086D01*
X44532Y-55848D02*
X44082Y-55848D01*
X44532Y-55634D02*
X44296Y-55634D01*
X44254Y-55657D01*
X44232Y-55705D01*
X44232Y-55777D01*
X44254Y-55824D01*
X44275Y-55848D01*
X44232Y-55444D02*
X44232Y-55182D01*
X44532Y-55444D01*
X44532Y-55182D01*
X24332Y-62855D02*
X24782Y-62521D01*
X24332Y-62521D02*
X24782Y-62855D01*
X24375Y-62355D02*
X24354Y-62331D01*
X24332Y-62283D01*
X24332Y-62164D01*
X24354Y-62117D01*
X24375Y-62093D01*
X24418Y-62069D01*
X24461Y-62069D01*
X24525Y-62093D01*
X24782Y-62379D01*
X24782Y-62069D01*
X25725Y-63495D02*
X25704Y-63471D01*
X25682Y-63423D01*
X25682Y-63304D01*
X25704Y-63257D01*
X25725Y-63233D01*
X25768Y-63209D01*
X25811Y-63209D01*
X25875Y-63233D01*
X26132Y-63519D01*
X26132Y-63209D01*
X25682Y-62757D02*
X25682Y-62995D01*
X25896Y-63019D01*
X25875Y-62995D01*
X25854Y-62947D01*
X25854Y-62828D01*
X25875Y-62781D01*
X25896Y-62757D01*
X25939Y-62733D01*
X26046Y-62733D01*
X26089Y-62757D01*
X26111Y-62781D01*
X26132Y-62828D01*
X26132Y-62947D01*
X26111Y-62995D01*
X26089Y-63019D01*
X26132Y-62519D02*
X25682Y-62519D01*
X26004Y-62352D01*
X25682Y-62186D01*
X26132Y-62186D01*
X26132Y-61948D02*
X25682Y-61948D01*
X26132Y-61734D02*
X25896Y-61734D01*
X25854Y-61757D01*
X25832Y-61805D01*
X25832Y-61877D01*
X25854Y-61924D01*
X25875Y-61948D01*
X25832Y-61544D02*
X25832Y-61282D01*
X26132Y-61544D01*
X26132Y-61282D01*
G54D13*
X47930Y-50062D02*
X47930Y-49662D01*
X48025Y-49662D01*
X48083Y-49681D01*
X48121Y-49719D01*
X48140Y-49757D01*
X48159Y-49833D01*
X48159Y-49890D01*
X48140Y-49967D01*
X48121Y-50005D01*
X48083Y-50043D01*
X48025Y-50062D01*
X47930Y-50062D01*
X48540Y-50062D02*
X48311Y-50062D01*
X48425Y-50062D02*
X48425Y-49662D01*
X48387Y-49719D01*
X48349Y-49757D01*
X48311Y-49776D01*
G54D20*
X40443Y-62739D02*
X39843Y-62739D01*
X40386Y-62268D02*
X40414Y-62289D01*
X40443Y-62353D01*
X40443Y-62396D01*
X40414Y-62461D01*
X40357Y-62503D01*
X40300Y-62525D01*
X40186Y-62546D01*
X40100Y-62546D01*
X39986Y-62525D01*
X39929Y-62503D01*
X39871Y-62461D01*
X39843Y-62396D01*
X39843Y-62353D01*
X39871Y-62289D01*
X39900Y-62268D01*
X40443Y-61839D02*
X40443Y-62096D01*
X40443Y-61968D02*
X39843Y-61968D01*
X39929Y-62011D01*
X39986Y-62053D01*
X40014Y-62096D01*
X40271Y-57354D02*
X40271Y-57140D01*
X40443Y-57397D02*
X39843Y-57247D01*
X40443Y-57097D01*
X39843Y-57011D02*
X39843Y-56754D01*
X40443Y-56883D02*
X39843Y-56883D01*
X40443Y-56604D02*
X39843Y-56604D01*
X40271Y-56454D01*
X39843Y-56304D01*
X40443Y-56304D01*
X40129Y-56090D02*
X40129Y-55940D01*
X40443Y-55876D02*
X40443Y-56090D01*
X39843Y-56090D01*
X39843Y-55876D01*
X39871Y-55447D02*
X39843Y-55490D01*
X39843Y-55554D01*
X39871Y-55619D01*
X39929Y-55661D01*
X39986Y-55683D01*
X40100Y-55704D01*
X40186Y-55704D01*
X40300Y-55683D01*
X40357Y-55661D01*
X40414Y-55619D01*
X40443Y-55554D01*
X40443Y-55511D01*
X40414Y-55447D01*
X40386Y-55426D01*
X40186Y-55426D01*
X40186Y-55511D01*
X40271Y-55254D02*
X40271Y-55040D01*
X40443Y-55297D02*
X39843Y-55147D01*
X40443Y-54997D01*
X40443Y-54611D02*
X40443Y-54868D01*
X40443Y-54740D02*
X39843Y-54740D01*
X39929Y-54783D01*
X39986Y-54825D01*
X40014Y-54868D01*
X39843Y-54225D02*
X39843Y-54311D01*
X39871Y-54354D01*
X39900Y-54375D01*
X39986Y-54418D01*
X40100Y-54439D01*
X40329Y-54439D01*
X40386Y-54418D01*
X40414Y-54396D01*
X40443Y-54354D01*
X40443Y-54268D01*
X40414Y-54225D01*
X40386Y-54204D01*
X40329Y-54182D01*
X40186Y-54182D01*
X40129Y-54204D01*
X40100Y-54225D01*
X40071Y-54268D01*
X40071Y-54354D01*
X40100Y-54396D01*
X40129Y-54418D01*
X40186Y-54439D01*
X40100Y-53925D02*
X40071Y-53967D01*
X40043Y-53989D01*
X39986Y-54010D01*
X39957Y-54010D01*
X39900Y-53989D01*
X39871Y-53967D01*
X39843Y-53925D01*
X39843Y-53839D01*
X39871Y-53796D01*
X39900Y-53775D01*
X39957Y-53753D01*
X39986Y-53753D01*
X40043Y-53775D01*
X40071Y-53796D01*
X40100Y-53839D01*
X40100Y-53925D01*
X40129Y-53967D01*
X40157Y-53989D01*
X40214Y-54010D01*
X40329Y-54010D01*
X40386Y-53989D01*
X40414Y-53967D01*
X40443Y-53925D01*
X40443Y-53839D01*
X40414Y-53796D01*
X40386Y-53775D01*
X40329Y-53753D01*
X40214Y-53753D01*
X40157Y-53775D01*
X40129Y-53796D01*
X40100Y-53839D01*
X40214Y-53560D02*
X40214Y-53217D01*
X40443Y-53003D02*
X39843Y-53003D01*
X39843Y-52831D01*
X39871Y-52789D01*
X39900Y-52767D01*
X39957Y-52746D01*
X40043Y-52746D01*
X40100Y-52767D01*
X40129Y-52789D01*
X40157Y-52831D01*
X40157Y-53003D01*
X28343Y-65143D02*
X28829Y-65143D01*
X28886Y-65121D01*
X28914Y-65100D01*
X28943Y-65057D01*
X28943Y-64971D01*
X28914Y-64929D01*
X28886Y-64907D01*
X28829Y-64886D01*
X28343Y-64886D01*
X28343Y-64715D02*
X28343Y-64436D01*
X28571Y-64586D01*
X28571Y-64522D01*
X28600Y-64479D01*
X28629Y-64458D01*
X28686Y-64436D01*
X28829Y-64436D01*
X28886Y-64458D01*
X28914Y-64479D01*
X28943Y-64522D01*
X28943Y-64650D01*
X28914Y-64693D01*
X28886Y-64715D01*
X28629Y-59929D02*
X28629Y-59779D01*
X28943Y-59715D02*
X28943Y-59929D01*
X28343Y-59929D01*
X28343Y-59715D01*
X28943Y-59522D02*
X28343Y-59522D01*
X28943Y-59265D01*
X28343Y-59265D01*
X28886Y-58794D02*
X28914Y-58815D01*
X28943Y-58879D01*
X28943Y-58922D01*
X28914Y-58987D01*
X28857Y-59029D01*
X28800Y-59051D01*
X28686Y-59072D01*
X28600Y-59072D01*
X28486Y-59051D01*
X28429Y-59029D01*
X28371Y-58987D01*
X28343Y-58922D01*
X28343Y-58879D01*
X28371Y-58815D01*
X28400Y-58794D01*
X28400Y-58622D02*
X28371Y-58601D01*
X28343Y-58558D01*
X28343Y-58451D01*
X28371Y-58408D01*
X28400Y-58387D01*
X28457Y-58365D01*
X28514Y-58365D01*
X28600Y-58387D01*
X28943Y-58644D01*
X28943Y-58365D01*
X28600Y-58108D02*
X28571Y-58150D01*
X28543Y-58172D01*
X28486Y-58193D01*
X28457Y-58193D01*
X28400Y-58172D01*
X28371Y-58150D01*
X28343Y-58108D01*
X28343Y-58022D01*
X28371Y-57979D01*
X28400Y-57958D01*
X28457Y-57936D01*
X28486Y-57936D01*
X28543Y-57958D01*
X28571Y-57979D01*
X28600Y-58022D01*
X28600Y-58108D01*
X28629Y-58150D01*
X28657Y-58172D01*
X28714Y-58193D01*
X28829Y-58193D01*
X28886Y-58172D01*
X28914Y-58150D01*
X28943Y-58108D01*
X28943Y-58022D01*
X28914Y-57979D01*
X28886Y-57958D01*
X28829Y-57936D01*
X28714Y-57936D01*
X28657Y-57958D01*
X28629Y-57979D01*
X28600Y-58022D01*
X28343Y-57614D02*
X28771Y-57614D01*
X28857Y-57636D01*
X28914Y-57679D01*
X28943Y-57743D01*
X28943Y-57786D01*
X28343Y-57207D02*
X28343Y-57293D01*
X28371Y-57336D01*
X28400Y-57357D01*
X28486Y-57400D01*
X28600Y-57421D01*
X28829Y-57421D01*
X28886Y-57400D01*
X28914Y-57378D01*
X28943Y-57336D01*
X28943Y-57250D01*
X28914Y-57207D01*
X28886Y-57186D01*
X28829Y-57164D01*
X28686Y-57164D01*
X28629Y-57186D01*
X28600Y-57207D01*
X28571Y-57250D01*
X28571Y-57336D01*
X28600Y-57378D01*
X28629Y-57400D01*
X28686Y-57421D01*
X28343Y-56885D02*
X28343Y-56842D01*
X28371Y-56799D01*
X28400Y-56778D01*
X28457Y-56757D01*
X28571Y-56735D01*
X28714Y-56735D01*
X28829Y-56757D01*
X28886Y-56778D01*
X28914Y-56799D01*
X28943Y-56842D01*
X28943Y-56885D01*
X28914Y-56928D01*
X28886Y-56949D01*
X28829Y-56971D01*
X28714Y-56992D01*
X28571Y-56992D01*
X28457Y-56971D01*
X28400Y-56949D01*
X28371Y-56928D01*
X28343Y-56885D01*
X28714Y-56542D02*
X28714Y-56199D01*
X28943Y-55985D02*
X28343Y-55985D01*
X28343Y-55878D01*
X28371Y-55813D01*
X28429Y-55771D01*
X28486Y-55749D01*
X28600Y-55728D01*
X28686Y-55728D01*
X28800Y-55749D01*
X28857Y-55771D01*
X28914Y-55813D01*
X28943Y-55878D01*
X28943Y-55985D01*
X28943Y-55535D02*
X28343Y-55535D01*
X28943Y-55107D02*
X28943Y-55321D01*
X28343Y-55321D01*
G54D18*
X33084Y-59675D02*
X33084Y-58994D01*
X33247Y-58994D01*
X33288Y-59027D01*
X33308Y-59059D01*
X33328Y-59124D01*
X33328Y-59221D01*
X33308Y-59286D01*
X33288Y-59318D01*
X33247Y-59351D01*
X33084Y-59351D01*
X33471Y-58994D02*
X33756Y-58994D01*
X33573Y-59675D01*
G54D12*
X10743Y-57475D02*
X11171Y-57475D01*
X11257Y-57503D01*
X11314Y-57560D01*
X11343Y-57646D01*
X11343Y-57703D01*
X11343Y-56875D02*
X11343Y-57218D01*
X11343Y-57046D02*
X10743Y-57046D01*
X10829Y-57103D01*
X10886Y-57161D01*
X10914Y-57218D01*
G54D13*
X12759Y-59207D02*
X12572Y-59338D01*
X12759Y-59432D02*
X12365Y-59432D01*
X12365Y-59282D01*
X12384Y-59245D01*
X12403Y-59226D01*
X12441Y-59207D01*
X12497Y-59207D01*
X12534Y-59226D01*
X12553Y-59245D01*
X12572Y-59282D01*
X12572Y-59432D01*
X12365Y-58926D02*
X12647Y-58926D01*
X12703Y-58944D01*
X12741Y-58982D01*
X12759Y-59038D01*
X12759Y-59076D01*
X12497Y-58569D02*
X12759Y-58569D01*
X12347Y-58663D02*
X12628Y-58757D01*
X12628Y-58513D01*
X12365Y-58176D02*
X12365Y-58363D01*
X12553Y-58382D01*
X12534Y-58363D01*
X12516Y-58326D01*
X12516Y-58232D01*
X12534Y-58194D01*
X12553Y-58176D01*
X12591Y-58157D01*
X12684Y-58157D01*
X12722Y-58176D01*
X12741Y-58194D01*
X12759Y-58232D01*
X12759Y-58326D01*
X12741Y-58363D01*
X12722Y-58382D01*
X12609Y-57988D02*
X12609Y-57688D01*
X12365Y-57556D02*
X12365Y-57331D01*
X12759Y-57444D02*
X12365Y-57444D01*
X12759Y-56975D02*
X12572Y-57106D01*
X12759Y-57200D02*
X12365Y-57200D01*
X12365Y-57050D01*
X12384Y-57013D01*
X12403Y-56994D01*
X12441Y-56975D01*
X12497Y-56975D01*
X12534Y-56994D01*
X12553Y-57013D01*
X12572Y-57050D01*
X12572Y-57200D01*
X12647Y-56825D02*
X12647Y-56637D01*
X12759Y-56862D02*
X12365Y-56731D01*
X12759Y-56600D01*
X12759Y-56468D02*
X12365Y-56468D01*
X12759Y-56243D01*
X12365Y-56243D01*
X12741Y-56074D02*
X12759Y-56018D01*
X12759Y-55924D01*
X12741Y-55886D01*
X12722Y-55868D01*
X12684Y-55849D01*
X12647Y-55849D01*
X12609Y-55868D01*
X12591Y-55886D01*
X12572Y-55924D01*
X12553Y-55999D01*
X12534Y-56036D01*
X12516Y-56055D01*
X12478Y-56074D01*
X12441Y-56074D01*
X12403Y-56055D01*
X12384Y-56036D01*
X12365Y-55999D01*
X12365Y-55905D01*
X12384Y-55849D01*
X12553Y-55549D02*
X12553Y-55680D01*
X12759Y-55680D02*
X12365Y-55680D01*
X12365Y-55493D01*
X12365Y-55267D02*
X12365Y-55192D01*
X12384Y-55155D01*
X12422Y-55117D01*
X12497Y-55098D01*
X12628Y-55098D01*
X12703Y-55117D01*
X12741Y-55155D01*
X12759Y-55192D01*
X12759Y-55267D01*
X12741Y-55305D01*
X12703Y-55342D01*
X12628Y-55361D01*
X12497Y-55361D01*
X12422Y-55342D01*
X12384Y-55305D01*
X12365Y-55267D01*
G54D18*
X44425Y-51066D02*
X43744Y-51066D01*
X43744Y-50903D01*
X43777Y-50862D01*
X43809Y-50842D01*
X43874Y-50822D01*
X43971Y-50822D01*
X44036Y-50842D01*
X44068Y-50862D01*
X44101Y-50903D01*
X44101Y-51066D01*
X43744Y-50679D02*
X43744Y-50414D01*
X44004Y-50557D01*
X44004Y-50495D01*
X44036Y-50455D01*
X44068Y-50434D01*
X44133Y-50414D01*
X44295Y-50414D01*
X44360Y-50434D01*
X44393Y-50455D01*
X44425Y-50495D01*
X44425Y-50618D01*
X44393Y-50658D01*
X44360Y-50679D01*
G54D15*
X09610Y-66837D02*
X09381Y-66837D01*
X09495Y-66837D02*
X09495Y-66437D01*
X09457Y-66494D01*
X09419Y-66532D01*
X09381Y-66551D01*
X09781Y-66837D02*
X09781Y-66437D01*
X09934Y-66437D01*
X09972Y-66456D01*
X09991Y-66475D01*
X10010Y-66513D01*
X10010Y-66570D01*
X09991Y-66608D01*
X09972Y-66627D01*
X09934Y-66646D01*
X09781Y-66646D01*
X10181Y-66837D02*
X10181Y-66437D01*
X10371Y-66837D02*
X10371Y-66437D01*
X10600Y-66837D01*
X10600Y-66437D01*
X49660Y-66887D02*
X49431Y-66887D01*
X49545Y-66887D02*
X49545Y-66487D01*
X49507Y-66544D01*
X49469Y-66582D01*
X49431Y-66601D01*
X49831Y-66887D02*
X49831Y-66487D01*
X49984Y-66487D01*
X50022Y-66506D01*
X50041Y-66525D01*
X50060Y-66563D01*
X50060Y-66620D01*
X50041Y-66658D01*
X50022Y-66677D01*
X49984Y-66696D01*
X49831Y-66696D01*
X50231Y-66887D02*
X50231Y-66487D01*
X50421Y-66887D02*
X50421Y-66487D01*
X50650Y-66887D01*
X50650Y-66487D01*
X50085Y-45437D02*
X49856Y-45437D01*
X49970Y-45437D02*
X49970Y-45037D01*
X49932Y-45094D01*
X49894Y-45132D01*
X49856Y-45151D01*
X50256Y-45437D02*
X50256Y-45037D01*
X50409Y-45037D01*
X50447Y-45056D01*
X50466Y-45075D01*
X50485Y-45113D01*
X50485Y-45170D01*
X50466Y-45208D01*
X50447Y-45227D01*
X50409Y-45246D01*
X50256Y-45246D01*
X50656Y-45437D02*
X50656Y-45037D01*
X50846Y-45437D02*
X50846Y-45037D01*
X51075Y-45437D01*
X51075Y-45037D01*
X09660Y-45587D02*
X09431Y-45587D01*
X09545Y-45587D02*
X09545Y-45187D01*
X09507Y-45244D01*
X09469Y-45282D01*
X09431Y-45301D01*
X09831Y-45587D02*
X09831Y-45187D01*
X09984Y-45187D01*
X10022Y-45206D01*
X10041Y-45225D01*
X10060Y-45263D01*
X10060Y-45320D01*
X10041Y-45358D01*
X10022Y-45377D01*
X09984Y-45396D01*
X09831Y-45396D01*
X10231Y-45587D02*
X10231Y-45187D01*
X10421Y-45587D02*
X10421Y-45187D01*
X10650Y-45587D01*
X10650Y-45187D01*
M02*
